<svg width="512" height="512" viewBox="0 0 512 512" fill="none" xmlns="http://www.w3.org/2000/svg">
<path d="M126 181V33H155L270 37H341.5L396.5 33L402.5 37L396.5 190L451 234L447 458.5L430 470.5L62 458.5V234L126 181Z" fill="white" stroke="black"/>
<path d="M75.6738 213.715C75.1914 213.88 74.0591 214.52 73.4407 215.228C64.9563 224.756 61.975 229.172 52.8673 241.848C48.9307 323.215 52.0943 402.67 53.6408 482.307C203.224 487.035 231.408 479.663 433.272 484.626C443.153 478.677 448.825 474.982 455.817 465.01C456.963 463.975 457.701 462.51 457.621 460.85C453.87 382.948 464.418 308.103 459.871 228.448C459.756 226.421 455.148 222.175 454.44 221.718C439.659 212.192 424.028 200.353 406.767 185.673C410.215 135.183 414.835 82.0116 413.371 32.7115C413.232 27.9123 407.051 27.8079 406.326 27.5726C317.192 37.6498 222.846 30.9869 134.395 27.9685C130.849 26.0485 124.617 28.9579 125.464 34.0479C123.419 37.7753 120.811 41.9034 118.786 44.406C118.767 45.2016 117.305 139.996 117.895 177.634C107.167 186.5 94.6137 196.334 75.6738 213.715ZM201.089 342.835C159.928 379.751 118.025 417.559 82.8231 452.995C83.2102 376.675 88.6522 306.724 83.5019 232.366C84.2129 233.078 191.156 340.602 201.089 342.835ZM99.6321 451.265C151.416 400.195 215.188 345.241 267.927 296.877C323.255 351.812 392.469 407.575 447.125 462.001C447.139 462.081 447.165 462.156 447.183 462.235C351.832 455.02 158.814 445.605 99.6321 451.265ZM449.504 237.208C452.545 305.808 445.525 367.325 446.195 433.692C445.209 430.743 443.322 427.83 439.759 424.783C418.79 406.856 379.789 375.088 337.873 343.015C374.587 306.717 412.512 273.619 449.504 237.208ZM444.07 227.594C430.887 240.63 417.081 253.712 403.257 266.605C403.406 244.491 404.456 221.7 405.916 198.847C419.436 210.065 432.038 219.56 444.07 227.594ZM402.85 38.656C404.408 115.419 391.923 199.59 392.493 276.614C371.378 296.219 349.652 316.309 329.322 336.464C308.919 320.985 306.946 320.84 273.121 287.024C269.607 283.51 266.333 283.871 264.287 285.753C246.646 301.984 227.637 319.033 207.516 337.069C206.855 331.605 202.541 334.535 137.093 270.603C138.263 269.625 139.051 268.21 139.051 266.566C139.051 185.664 137.275 118.934 137.19 38.7393C224.329 41.8089 316.114 47.9869 402.85 38.656ZM120.856 254.61C110.909 244.736 101.236 235.035 85.4676 219.241C95.3626 210.254 106.12 201.022 118.16 191.194C118.586 212.389 119.301 233.64 120.856 254.61Z" fill="black"/>
<path d="M173.972 158.593H251.499C254.444 158.593 256.833 156.204 256.833 153.26V75.7323C256.833 72.7878 254.444 70.3989 251.499 70.3989H173.972C171.027 70.3989 168.638 72.7878 168.638 75.7323V153.26C168.638 156.204 171.027 158.593 173.972 158.593ZM179.305 81.0656H246.166V147.927H179.305V81.0656Z" fill="black"/>
<path d="M288.77 109.392H357.35C360.295 109.392 362.684 107.003 362.684 104.059C362.684 101.114 360.295 98.7253 357.35 98.7253H288.77C285.826 98.7253 283.437 101.114 283.437 104.059C283.437 107.003 285.826 109.392 288.77 109.392Z" fill="black"/>
<path d="M334.989 147.413C337.934 147.413 340.322 145.024 340.322 142.08C340.322 139.135 337.934 136.746 334.989 136.746H293.989C291.045 136.746 288.656 139.135 288.656 142.08C288.656 145.024 291.045 147.413 293.989 147.413H334.989Z" fill="black"/>
<path d="M353.625 202.344H176.208C173.263 202.344 170.875 204.732 170.875 207.677C170.875 210.621 173.263 213.01 176.208 213.01H353.625C356.569 213.01 358.958 210.621 358.958 207.677C358.958 204.732 356.569 202.344 353.625 202.344Z" fill="black"/>
<path d="M214.225 246.323H175.461C172.517 246.323 170.128 248.712 170.128 251.656C170.128 254.601 172.517 256.989 175.461 256.989H214.225C217.17 256.989 219.558 254.601 219.558 251.656C219.558 248.712 217.17 246.323 214.225 246.323Z" fill="black"/>
</svg>
