<svg width="512" height="512" viewBox="0 0 512 512" fill="none" xmlns="http://www.w3.org/2000/svg">
<path d="M294 169L476 137L472.5 158.5L432 264.5L376.5 391L366 396L304 358.5L252 402L221 425.5L213.5 415L158 286.5L58 249L37 230.5L124.5 207.5L294 169Z" fill="white" stroke="black"/>
<path d="M477.672 132.451C327.176 152.797 177.333 191.158 32.422 224.801C28.4292 225.731 26.9369 230.691 29.9639 233.656C31.1369 237.696 32.3192 241.734 33.4892 245.775C80.6661 265.207 132.488 288.9 159.024 298.328C176.379 341.841 198.856 395.842 216.132 429.182C215.936 433.892 221.343 436.301 224.747 433.417L299.526 370.127C356.226 403.181 356.083 403.72 362.561 404.799C366.267 405.417 370.349 404.839 373.429 402.821C373.735 402.795 374.037 402.876 374.34 402.794C375.925 402.376 377.227 401.239 377.857 399.718C411.418 318.52 460.363 222.971 483.449 139.061C484.465 135.369 481.31 131.914 477.672 132.451ZM220.497 414.458C202.721 378.284 180.785 324.789 164.628 283.932C233.012 267.61 292.112 244.655 356.552 219.725C324.133 254.341 300.028 294.292 264.819 325.814C263.256 327.214 262.764 329.331 263.318 331.217C245.165 363.833 234.85 381.966 220.497 414.458ZM241.898 405.122C249.353 393.864 256.547 382.433 263.151 370.655C265.295 366.83 267.102 362.799 270.095 359.552C270.854 358.729 271.819 356.733 272.758 354.523C278.467 357.851 284.177 361.179 289.886 364.508L241.898 405.122ZM370.758 389.396C337.798 364.875 310.02 354.158 276.649 328.989C316.122 291.796 342.88 244.49 381.895 209.561C386.198 205.717 382.009 198.674 376.497 200.732C300.356 230.226 233.444 257.254 157.076 274.972C156.041 275.212 155.222 275.806 154.539 276.521C119.11 262.337 79.9338 248.963 47.9597 231.985C187 199.489 328.883 163.8 471.124 143.972C448.132 222.893 403.041 312.336 370.758 389.396Z" fill="black"/>
<path d="M282.134 97.8827C279.508 99.1224 278.384 102.259 279.624 104.883C284.134 114.424 287.795 124.437 290.501 134.65C291.128 137.006 293.254 138.561 295.583 138.561C299.042 138.561 301.555 135.286 300.672 131.951C297.799 121.129 293.919 110.506 289.138 100.39C287.891 97.7594 284.754 96.6498 282.134 97.8827Z" fill="black"/>
<path d="M321.508 131.479C324.038 131.479 326.271 129.643 326.693 127.068C329.107 112.259 329.737 97.1566 328.562 82.1772C328.333 79.2799 325.734 77.2114 322.908 77.3416C320.011 77.5676 317.847 80.1018 318.076 82.9991C319.182 97.1429 318.59 111.396 316.309 125.369C315.786 128.566 318.246 131.479 321.508 131.479Z" fill="black"/>
<path d="M359.579 86.0539L340.706 120.253C339.302 122.794 340.227 125.992 342.771 127.396C345.323 128.808 348.522 127.869 349.918 125.335L368.792 91.1361C370.196 88.595 369.271 85.3895 366.727 83.9923C364.192 82.595 360.987 83.506 359.579 86.0539Z" fill="black"/>
</svg>
