<svg width="422" height="462" viewBox="0 0 422 462" fill="none" xmlns="http://www.w3.org/2000/svg">
<path d="M288.5 28L267.5 7.5H254.5L241.5 28L213.5 52.5L184 79L150.5 101.5L103.5 124L70.0001 145.5C57.5 162 57.1999 195.5 69.9999 217.5L123 236L135 247.5L120 262.5L116 285.5L103.5 339L99.0001 364.5L90.0001 356.5L74.0001 364.5V438H123L147 424.5L187.5 420L249.5 388.5L254.5 347L241.5 339L249.5 322.5V306L241.5 301.5V288.5L232.5 277L228.5 262.5L210 251.5L199.5 233V217.5L241.5 221.5L285 236L312.5 251.5H324.5L334.5 233V197L330 145.5L305.5 64L288.5 28Z" fill="white" stroke="black"/>
<path d="M14.1296 432.16C43.7804 455.572 79.5445 463.445 93.8232 461.76C102.025 460.792 106.388 455.81 110.882 450.108C124.436 440.789 123.509 442.04 124.557 440.548C128.964 439.261 132.566 436.492 134.678 432.782C146.092 433.874 178.744 432.472 202.407 423.753C255.016 404.368 278.955 344.192 249.217 336.76C258.384 322.723 263.233 304.808 247.917 297.824C250.72 287.321 245 278.368 236.914 275.168C240.784 263.497 234.423 252.909 220.094 253.101C218.953 249.574 215.65 245.977 212.68 245.146C220.295 244.651 219.657 230.073 213.328 225.095C261.363 226.29 301.764 248.64 305.753 252.674C310.488 257.475 315.469 261.917 321.965 259.573C338.536 253.58 341.524 210.369 339.781 186.584C334.239 110.86 302.23 39.1695 284.298 13.9032C269.616 -6.79059 253.254 -1.43857 247.273 11.0976C206.178 57.1662 159.989 92.401 109.961 115.802C97.5714 121.537 85.0967 126.936 75.2703 136.212C56.0964 154.312 46.6708 192.798 64.9178 220.332C77.2425 238.93 99.9847 249.499 122.141 248.695C117.556 254.16 113.977 261.143 113.614 266.917C111.999 292.604 110.388 289.833 104.576 311.223C100.854 324.924 98.2933 339.197 97.0585 352.463C94.1357 350.64 90.9686 350.079 87.5411 350.962C83.8007 351.927 80.5541 354.472 78.3653 358.035C73.9387 360.474 42.5642 382.694 38.4404 385.629C27.923 393.108 17.9925 400.174 2.65916 410.5C-4.29651 415.184 8.1284 427.421 14.1296 432.16ZM275.597 20.0768C294.319 46.4202 323.802 114.436 329.142 187.361C330.113 200.578 328.924 245.382 318.555 249.514C306.341 247.731 281.965 199.827 276.773 188.588C283.157 180.945 290.828 174.27 299.275 168.909C300.519 169.422 301.798 169.695 303.111 169.695C318.368 169.695 316.572 141.724 313.409 126.775C309.284 107.268 299.975 88.7122 288.531 91.0837C285.655 91.6931 283.443 93.4622 281.805 96.0746C271.609 97.3046 261.321 97.3224 251.102 96.0694C248.581 70.8056 250.885 29.794 256.545 16.3072C260.001 9.0147 266.33 7.00951 275.597 20.0768ZM280.242 133.792C282.483 144.377 286.25 154.674 291.052 161.512C284.101 166.2 277.748 171.762 272.079 177.907C262.418 154.713 255.791 130.76 252.423 106.913C262.094 107.911 269.319 107.942 278.42 107.156C277.485 114.909 278.274 124.483 280.242 133.792ZM242.041 32.3745C232.069 105.085 251.249 173.858 288.043 231.392C255.855 216.98 220.177 211.471 183.451 215.74C178.201 216.351 176.056 224.762 181.69 226.952C188.298 229.525 194.295 236.653 195.34 243.184C196.103 247.94 195.154 251.483 188.149 255.872C183.398 258.845 185.914 266.021 191.475 266.021C192.666 266.021 193.867 265.622 194.861 264.806C194.906 264.769 194.947 264.731 194.992 264.694C196.391 264.754 197.037 265.222 197.978 266.057C197.266 266.661 164.292 292.839 154.326 299.122C154.34 299.07 154.35 299.018 154.361 298.966C157.6 283.929 158.782 265.796 150.373 252.933C148.398 243.697 146.94 234.55 146.08 226.113C146.366 221.565 141.736 219.262 138.319 221.101C137.379 221.608 136.388 221.998 135.418 222.437C111.531 197.751 102.313 159.561 112.538 126.754C112.58 126.618 112.548 126.483 112.58 126.347C114.9 124.973 176.009 101.034 242.041 32.3745ZM82.5897 143.969C87.6522 139.193 93.6691 135.618 100.11 132.341C93.1344 164.904 102.264 200.777 124.101 225.934C113.953 227.734 103.26 226.403 94.0029 221.757C64.3479 206.877 58.4482 166.764 82.5897 143.969ZM90.1974 361.296C91.4747 360.953 93.6691 362.69 96.2473 368.108C96.2377 369.426 96.2073 370.769 96.2321 372.046C96.431 381.851 111.363 376.472 107.045 366.206C107.353 350.364 110.043 331.787 114.868 314.021C120.49 293.326 122.561 294.651 124.26 267.584C124.67 261.059 132.624 251.723 135.989 250.507C137.364 252.65 138.586 254.476 139.666 256.091C154.162 277.748 140.098 308.074 139.958 308.785C139.129 312.922 143.151 316.366 147.104 314.865C169.882 305.892 208.521 268.155 219.843 263.764C224.112 262.792 228.982 265.622 226.77 271.924C224.538 278.314 209.338 290.146 203.965 294.247C201.624 296.035 201.173 299.382 202.961 301.723C204.749 304.063 208.104 304.507 210.437 302.726C212.514 301.138 217.847 299.033 230.777 284.601C235.01 285.207 237.488 288.514 237.85 290.796C239.135 298.822 234.665 299.2 212.34 318.521C208.585 321.761 210.93 327.889 215.829 327.889C218.535 327.889 241.424 308.069 242.348 307.181C254.063 309.181 240.934 331.032 238.611 333.035C234.681 336.42 231.21 340.609 226.781 343.796C224.388 345.518 223.847 348.848 225.565 351.24C227.287 353.633 230.624 354.172 233.01 352.455C235.374 350.756 237.379 348.921 239.258 347.123C243.362 346.287 250.178 346.78 250.211 349.858C250.47 369.662 214.959 394.054 196.739 401.719C169.6 413.143 146.527 416.639 126.236 412.421C119.629 411.052 116.696 421.028 124.534 423.247C127.551 424.092 126.206 430.048 120.218 430.73C110.85 431.729 97.7149 420.804 91.6314 405.691C85.7732 391.157 85.0766 369.964 86.6522 365.337C87.3501 363.285 88.7772 361.66 90.1974 361.296Z" fill="black"/>
<path d="M341.361 86.4761L396.079 42.8476C398.381 41.0108 398.76 37.6566 396.923 35.3511C395.093 33.0559 391.732 32.6705 389.427 34.5073L334.708 78.1358C332.406 79.9726 332.027 83.3268 333.864 85.6323C335.706 87.9426 339.07 88.3051 341.361 86.4761Z" fill="black"/>
<path d="M351.485 125.584C352.297 128.464 355.277 130.057 358.065 129.275L409.128 114.893C411.961 114.094 413.61 111.15 412.812 108.313C412.02 105.476 409.09 103.83 406.232 104.629L355.176 119.004C352.34 119.803 350.69 122.75 351.485 125.584Z" fill="black"/>
<path d="M366.975 169.389C364.041 169.67 361.892 172.275 362.173 175.205C362.451 178.136 365.003 180.282 367.989 180.007C383.697 178.5 399.503 179.434 414.941 182.768C417.76 183.388 420.648 181.604 421.277 178.681C421.899 175.802 420.069 172.966 417.191 172.344C400.673 168.775 383.763 167.782 366.975 169.389Z" fill="black"/>
</svg>
