<svg width="512" height="512" viewBox="0 0 512 512" fill="none" xmlns="http://www.w3.org/2000/svg">
<path d="M221 24.5L237.5 14.5L258.5 20.5L275 33L286.5 51.5L291 73.5L294.5 110.5V148V181L301.5 211L324.5 220L347.5 232.5L354 253.5L347.5 270L345 285.5L359 290.5L376.5 312.5L371.5 338L356.5 350.5L359 358L371.5 382.5L362 404.5L347.5 419.5L356.5 439.5L345 464L304.5 482.5L243 485L177.5 464C169.333 448 153 415.4 153 413V382.5L141 358C139.833 345 138.2 318.7 141 317.5C143.8 316.3 147.833 295.667 149.5 285.5V241L160.5 220L183 205.5L209 181L217 129.5L203.5 83.5L209 45.5L221 24.5Z" fill="white" stroke="black"/>
<path d="M187.482 350.871C184.471 339.576 184.471 328.282 185.976 316.988C187.482 309.459 176.188 307.953 174.682 315.482C172.423 328.282 173.176 341.082 176.188 353.882C178.447 360.659 189.741 357.647 187.482 350.871Z" fill="black"/>
<path d="M132.518 350.871C135.529 362.165 141.553 372.706 143.812 384.753C146.823 401.318 143.812 417.882 146.823 434.447C152.094 461.553 176.188 482.635 202.541 491.671C228.894 500.706 257.506 499.953 285.365 498.447C301.929 497.694 348.612 493.929 359.906 480.376C366.682 472.847 362.918 462.306 352.376 461.553C363.671 448 363.671 430.682 353.129 418.635C381.741 405.082 384 371.2 361.412 354.635C371.953 349.365 377.223 338.071 379.482 333.553C389.271 313.976 377.223 289.129 350.871 281.6C371.2 251.482 359.906 216.847 310.212 211.576C310.212 210.823 310.212 210.071 309.459 210.071C295.906 189.741 297.412 161.882 299.671 132.518C301.176 100.894 302.682 59.4823 283.859 33.1293C252.988 -7.52948 186.729 12.047 201.035 82.8235C203.294 95.6235 207.812 108.423 210.071 121.223C215.341 149.082 207.812 175.435 190.494 191.247C181.459 199.529 167.153 204.047 158.871 215.341C148.329 229.647 142.306 247.718 143.059 265.035C142.306 271.812 142.306 279.341 143.059 286.118C130.259 305.694 127.247 329.035 132.518 350.871ZM198.023 199.529C218.353 180.706 226.635 150.588 221.365 118.965C219.859 111.435 218.353 103.906 216.094 96.3764C222.118 100.141 229.647 102.4 236.423 102.4H239.435C246.965 101.647 246.212 90.3529 238.682 91.1058C229.647 91.8588 221.365 88.0941 215.341 82.0705C214.588 81.3176 213.835 80.5646 212.329 80.5646C200.282 22.5882 250.729 7.52934 274.071 40.6588C290.635 63.9999 289.129 103.906 287.623 132.518C286.118 160.376 284.612 188.988 296.659 212.329C281.6 212.329 265.788 214.588 250.729 213.835C249.976 213.082 248.471 212.329 246.965 212.329C241.694 212.329 237.176 207.812 236.423 202.541C235.671 199.529 233.412 197.271 229.647 198.023C219.859 199.529 226.635 213.835 234.918 219.859C237.176 237.176 311.718 210.071 339.576 235.671C350.118 245.459 352.376 261.271 338.823 279.341C338.071 280.094 338.071 280.847 338.071 280.847C313.976 279.341 243.953 283.859 228.894 284.612C225.882 284.612 223.623 287.623 223.623 290.635C223.623 293.647 226.635 295.906 229.647 295.906C341.835 288.376 348.612 289.882 361.412 301.176C369.694 307.953 372.706 320 368.188 329.788C356.894 353.129 347.106 346.353 342.588 348.612C329.788 346.353 246.965 345.6 247.718 345.6C240.188 345.6 240.188 356.894 247.718 356.894C332.8 358.4 341.835 356.894 353.129 363.671C371.953 374.965 368.941 402.071 344.847 410.353C344.094 410.353 343.341 411.106 342.588 411.859C330.541 406.588 323.012 408.094 246.212 408.094C238.682 408.094 238.682 419.388 246.212 419.388C320 419.388 329.788 417.882 339.576 422.4C356.141 431.435 356.141 460.047 314.729 469.082C292.141 473.6 268.8 472.094 245.459 470.588C228.894 469.835 210.823 468.329 196.518 460.8C182.212 453.271 170.165 438.965 164.141 420.894C158.871 404.329 165.647 380.988 156.612 362.918C145.318 340.329 145.318 312.471 158.118 290.635C158.871 289.129 158.871 287.623 158.118 286.118C150.588 265.035 154.353 240.941 167.906 222.118C173.929 213.082 188.235 208.565 198.023 199.529Z" fill="black"/>
</svg>
